# xmcd
#
# Track frame offsets:
#	182
#	12847
#	70095
#	99317
#	118810
#	130615
#	147967
#	161515
#	172000
#	192540
#	216025
#	242742
#	266675
#	281122
#
# Disc length: 4059 seconds
#
# Revision: 1
# Processed by: cddbd v1.5.2PL0 Copyright (c) Steve Scherf et al.
# Submitted via: EasyCDDAExtractor 16.0.6.1
#
DISCID=ce0fd90e
DTITLE=Various Artist - Dann bricht der große Morgen an, CD1
DYEAR=1900
DGENRE=Chöre
TTITLE0=Orff - O Furtuna
TTITLE1=Brahms - Denn wir haben hie keine bleibende Statt
TTITLE2=Weber - Ehre und Heil
TTITLE3=Händel - Hallelujah
TTITLE4=Wolfgand Amadeus Mozart - Confutatis
TTITLE5=Tschaikowsky - Credo
TTITLE6=Wolfgang Amadeus Mozart - Lacrimosa dies irae
TTITLE7=Vivaldi - Gloria
TTITLE8=Johann Sebastian Bach - Der Geist hilft unserer Schwachheit auf
TTITLE9=Wolfgang Amadeus Mozart - Requiem aeternam
TTITLE10=Haydn - Dann bricht der große Morgen an
TTITLE11=Wolfgang Amadeus Mozart - Laudate Dominum
TTITLE12=Gluck - Se intorno
TTITLE13=Bizet - Te Deum
EXTD=
EXTT0=
EXTT1=
EXTT2=
EXTT3=
EXTT4=
EXTT5=
EXTT6=
EXTT7=
EXTT8=
EXTT9=
EXTT10=
EXTT11=
EXTT12=
EXTT13=
PLAYORDER=
